<?xml version="1.0" encoding="UTF-8"?><svg xmlns="http://www.w3.org/2000/svg" class="header" enable-background="new 0 0 157 40" height="40px" preserveAspectRatio="xMidYMid meet" viewBox="0 0 157 40" width="157px"><style type="text/css">.logo {fill:#0067DB} .invert .logo{fill:#fff;}</style><g class="logo"><path d="M8.85 27.73L5.07 39.2H.2L12.6 2.72h5.7L30.77 39.2h-5.01l-3.9-11.47h-13zm11.95-3.68l-3.57-10.5c-.8-2.4-1.34-4.54-1.92-6.67h-.11a82.51 82.51 0 01-1.87 6.61L9.76 24.05H20.8zm13.65 15.2c.11-1.76.22-4.42.22-6.77V.8h4.69v16.48h.1c1.66-2.93 4.7-4.8 8.97-4.8 6.5 0 11.09 5.44 11.04 13.39 0 9.38-5.92 14.02-11.74 14.02-3.78 0-6.82-1.44-8.74-4.9h-.16l-.22 4.32h-4.16v-.06zm4.91-10.5a7.36 7.36 0 007.36 7.3c4.96 0 7.95-4.05 7.95-10.08 0-5.22-2.72-9.76-7.79-9.76a7.6 7.6 0 00-7.25 5.87c-.11.53-.27 1.17-.27 1.97v4.7zm25.01-7.52c0-3.1-.05-5.76-.21-8.16h4.16l.16 5.12h.21c1.18-3.52 4.06-5.76 7.26-5.76.53 0 .9.05 1.33.16v4.48c-.48-.11-.96-.16-1.6-.16-3.36 0-5.76 2.56-6.4 6.13-.1.64-.21 1.39-.21 2.24v13.97h-4.7V21.23zM86.5 5.65c.06 1.6-1.11 2.94-3.03 2.94a2.85 2.85 0 01-2.88-2.94 2.92 2.92 0 012.98-2.98c1.82 0 2.94 1.33 2.94 2.98zm-5.27 33.6V13.07h4.74v26.18h-4.74zM98.56 5.5V13h6.83v3.63h-6.83v14.13c0 3.26.9 5.07 3.57 5.07 1.23 0 2.19-.16 2.78-.32l.21 3.57c-.9.38-2.4.64-4.21.64-2.24 0-4-.69-5.12-2.02-1.34-1.39-1.87-3.74-1.87-6.83v-14.3h-4.05v-3.62h4.05v-6.3l4.64-1.17zM112 26.99c.1 6.45 4.21 9.12 9.01 9.12 3.42 0 5.5-.59 7.26-1.34l.8 3.42c-1.66.74-4.54 1.6-8.7 1.6-8.05 0-12.9-5.28-12.9-13.23 0-7.9 4.64-14.13 12.26-14.13 8.54 0 10.83 7.52 10.83 12.32 0 .96-.1 1.7-.16 2.24H112zm13.92-3.42c.05-3.04-1.23-7.73-6.61-7.73-4.8 0-6.94 4.43-7.31 7.73h13.92zM135.36.8h4.75v38.45h-4.75zM156.37 4.96a5.03 5.03 0 01-5.12 5.01 5.03 5.03 0 01-5.12-5.01c0-2.77 2.3-4.96 5.18-4.96a4.97 4.97 0 015.06 4.96zm-8.96 0c0 2.24 1.66 4 3.9 4 2.18.05 3.78-1.76 3.78-3.95 0-2.24-1.65-4-3.84-4a3.85 3.85 0 00-3.84 3.95zm3.04 2.61h-1.12V2.61c.48-.05 1.12-.16 1.92-.16.96 0 1.39.16 1.71.38.32.21.53.58.53 1.06 0 .59-.48 1.02-1.01 1.18v.05c.48.16.75.53.9 1.23.17.74.27 1.01.38 1.22h-1.23c-.16-.21-.21-.58-.37-1.22-.1-.54-.37-.75-1.01-.75h-.54v1.97h-.16zm.06-2.82h.53c.64 0 1.17-.22 1.17-.75 0-.48-.32-.75-1.06-.75-.32 0-.54.06-.64.06v1.44z"/></g></svg>