<svg width="33" height="39" viewBox="0 0 33 39" fill="none" xmlns="http://www.w3.org/2000/svg">
<path d="M1 14.5508L1.00009 14.5507" stroke="black"/>
<rect x="21.7451" y="22.4041" width="4.8062" height="3.20413" fill="#F58282"/>
<path d="M20.8607 1.74565L4.32334 12.4643C3.7545 12.833 3.41113 13.4647 3.41113 14.1426V36.2C3.41113 37.3046 4.30657 38.2 5.41113 38.2H30C31.1046 38.2 32 37.3046 32 36.2V9.25437C32 8.61305 31.6925 8.01063 31.173 7.63449L23.1215 1.80407C22.4523 1.31948 21.554 1.29627 20.8607 1.74565Z" fill="white" stroke="white"/>
<path d="M21.7321 2.37793V36.8224H16.9259V25.6079H8.12336V36.8224H4.12219V13.7726L8.12336 11.1893L8.12336 22.4038H16.9259V5.58206L21.7321 2.37793Z" fill="#6E61FE"/>
<path d="M21.7451 2.37793L31.3575 9.11612V12.7208L21.7451 6.3831V2.37793Z" fill="#F58282"/>
</svg>
