<svg width="59" height="59" viewBox="0 0 59 59" fill="none" xmlns="http://www.w3.org/2000/svg">
<path d="M9.83333 24.5833H49.1667M29.5 17.2083V9.83325M17.2083 17.2083V9.83325M41.7917 17.2083V9.83325M12.2917 49.1666H46.7083C47.3603 49.1666 47.9856 48.9076 48.4466 48.4466C48.9077 47.9855 49.1667 47.3602 49.1667 46.7083V17.2083C49.1667 16.5563 48.9077 15.931 48.4466 15.4699C47.9856 15.0089 47.3603 14.7499 46.7083 14.7499H12.2917C11.6397 14.7499 11.0144 15.0089 10.5534 15.4699C10.0923 15.931 9.83333 16.5563 9.83333 17.2083V46.7083C9.83333 47.3602 10.0923 47.9855 10.5534 48.4466C11.0144 48.9076 11.6397 49.1666 12.2917 49.1666ZM19.6667 31.9583H19.6912V31.9828H19.6667V31.9583ZM29.5 31.9583H29.5246V31.9828H29.5V31.9583ZM39.3333 31.9583H39.3579V31.9828H39.3333V31.9583ZM19.6667 41.7916H19.6912V41.8162H19.6667V41.7916ZM29.5 41.7916H29.5246V41.8162H29.5V41.7916ZM39.3333 41.7916H39.3579V41.8162H39.3333V41.7916Z" stroke="#6E61FE" stroke-width="3" stroke-linecap="round" stroke-linejoin="round"/>
</svg>
