<svg width="41" height="41" viewBox="0 0 41 41" fill="none" xmlns="http://www.w3.org/2000/svg">
<g clip-path="url(#clip0_261_1446)">
<path d="M32.4583 41.0001H8.54167C3.83179 41.0001 0 37.1683 0 32.4585V16.612C0 13.7676 1.40767 11.1197 3.76517 9.53091L15.7218 1.46074C18.6243 -0.497006 22.3758 -0.497006 25.2782 1.46074L37.2365 9.53091C39.5923 11.1197 41 13.7659 41 16.612V32.4585C41 37.1683 37.1682 41.0001 32.4583 41.0001ZM20.5 3.41166C19.5023 3.41166 18.5047 3.70549 17.6334 4.29487L5.67508 12.3633C4.26058 13.3166 3.41667 14.9036 3.41667 16.6102V32.4567C3.41667 35.2823 5.71608 37.5817 8.54167 37.5817H32.4583C35.2839 37.5817 37.5833 35.2823 37.5833 32.4567V16.612C37.5833 14.9053 36.7394 13.3166 35.3266 12.365L23.3666 4.29487C22.4953 3.70549 21.4977 3.41166 20.5 3.41166Z" fill="#6E61FE"/>
</g>
<defs>
<clipPath id="clip0_261_1446">
<rect width="41" height="41" fill="white"/>
</clipPath>
</defs>
</svg>
