<svg width="41" height="41" viewBox="0 0 41 41" fill="none" xmlns="http://www.w3.org/2000/svg">
<g clip-path="url(#clip0_261_1453)">
<path d="M6.83348 10.2502C6.15998 10.252 5.4928 10.1202 4.87056 9.86241C4.24833 9.60466 3.68338 9.22608 3.2084 8.74857L0.570732 6.40132C0.232283 6.09957 0.0275649 5.67573 0.00161459 5.22304C-0.0243358 4.77035 0.130607 4.3259 0.432357 3.98745C0.734107 3.649 1.15795 3.44428 1.61064 3.41833C2.06333 3.39238 2.50778 3.54732 2.84623 3.84907L5.55394 6.26465C5.70895 6.43873 5.89794 6.57924 6.10928 6.67754C6.32062 6.77584 6.54985 6.82985 6.78284 6.83626C7.01584 6.84266 7.24768 6.80131 7.4641 6.71476C7.68052 6.62821 7.87694 6.49829 8.04127 6.33299L14.1981 0.471695C14.5292 0.176957 14.9618 0.0224361 15.4047 0.04077C15.8476 0.0591038 16.266 0.248857 16.5716 0.56995C16.8771 0.891043 17.0459 1.31834 17.0423 1.76157C17.0387 2.20481 16.863 2.6293 16.5522 2.94536L10.421 8.77761C9.94909 9.24675 9.38936 9.61828 8.77379 9.87096C8.15822 10.1236 7.49889 10.2525 6.83348 10.2502ZM41.0002 6.83353C41.0002 6.38045 40.8202 5.94593 40.4998 5.62555C40.1794 5.30518 39.7449 5.1252 39.2918 5.1252H22.2085C21.7554 5.1252 21.3209 5.30518 21.0005 5.62555C20.6801 5.94593 20.5001 6.38045 20.5001 6.83353C20.5001 7.28661 20.6801 7.72113 21.0005 8.0415C21.3209 8.36188 21.7554 8.54186 22.2085 8.54186H39.2918C39.7449 8.54186 40.1794 8.36188 40.4998 8.0415C40.8202 7.72113 41.0002 7.28661 41.0002 6.83353ZM10.421 22.4443L16.5522 16.612C16.7233 16.4597 16.862 16.2745 16.9601 16.0674C17.0582 15.8603 17.1136 15.6357 17.1231 15.4067C17.1326 15.1778 17.0959 14.9493 17.0153 14.7349C16.9347 14.5204 16.8117 14.3244 16.6538 14.1584C16.4958 13.9924 16.3061 13.8599 16.0959 13.7688C15.8857 13.6776 15.6593 13.6297 15.4302 13.6278C15.2011 13.6259 14.9739 13.6702 14.7623 13.7579C14.5506 13.8456 14.3587 13.975 14.1981 14.1384L8.04811 19.9997C7.7229 20.3106 7.29028 20.4842 6.84032 20.4842C6.39036 20.4842 5.95773 20.3106 5.63252 19.9997L2.91627 17.2919C2.59408 16.9808 2.16255 16.8086 1.71463 16.8125C1.26671 16.8164 0.838239 16.996 0.5215 17.3128C0.204761 17.6295 0.0250978 18.058 0.0212055 18.5059C0.0173132 18.9538 0.189504 19.3853 0.50069 19.7075L3.2084 22.4152C4.16451 23.3716 5.45984 23.9113 6.81213 23.9167C8.16441 23.9221 9.46405 23.3929 10.4278 22.4443H10.421ZM41.0002 20.5002C41.0002 20.0471 40.8202 19.6126 40.4998 19.2922C40.1794 18.9718 39.7449 18.7919 39.2918 18.7919H22.2085C21.7554 18.7919 21.3209 18.9718 21.0005 19.2922C20.6801 19.6126 20.5001 20.0471 20.5001 20.5002C20.5001 20.9533 20.6801 21.3878 21.0005 21.7082C21.3209 22.0285 21.7554 22.2085 22.2085 22.2085H39.2918C39.7449 22.2085 40.1794 22.0285 40.4998 21.7082C40.8202 21.3878 41.0002 20.9533 41.0002 20.5002ZM10.421 36.1109L16.5454 30.2787C16.7165 30.1263 16.8552 29.9411 16.9533 29.7341C17.0514 29.527 17.1068 29.3023 17.1163 29.0734C17.1258 28.8445 17.0891 28.616 17.0085 28.4015C16.9278 28.1871 16.8049 27.991 16.6469 27.8251C16.489 27.6591 16.2993 27.5266 16.0891 27.4354C15.8789 27.3443 15.6525 27.2963 15.4233 27.2945C15.1942 27.2926 14.9671 27.3368 14.7554 27.4246C14.5438 27.5123 14.3519 27.6417 14.1913 27.805L8.04127 33.6663C7.87694 33.8316 7.68052 33.9615 7.4641 34.0481C7.24768 34.1346 7.01584 34.176 6.78284 34.1696C6.54985 34.1632 6.32062 34.1092 6.10928 34.0109C5.89794 33.9126 5.70895 33.7721 5.55394 33.598L2.84623 31.1824C2.50778 30.8807 2.06333 30.7257 1.61064 30.7517C1.15795 30.7776 0.734107 30.9823 0.432357 31.3208C0.130607 31.6592 -0.0243358 32.1037 0.00161459 32.5564C0.0275649 33.0091 0.232283 33.4329 0.570732 33.7347L3.2084 36.0819C4.16451 37.0382 5.45984 37.5779 6.81213 37.5834C8.16441 37.5888 9.46405 37.0596 10.4278 36.1109H10.421ZM41.0002 34.1669C41.0002 33.7138 40.8202 33.2793 40.4998 32.9589C40.1794 32.6385 39.7449 32.4585 39.2918 32.4585H22.2085C21.7554 32.4585 21.3209 32.6385 21.0005 32.9589C20.6801 33.2793 20.5001 33.7138 20.5001 34.1669C20.5001 34.6199 20.6801 35.0545 21.0005 35.3748C21.3209 35.6952 21.7554 35.8752 22.2085 35.8752H39.2918C39.7449 35.8752 40.1794 35.6952 40.4998 35.3748C40.8202 35.0545 41.0002 34.6199 41.0002 34.1669Z" fill="#6E61FE"/>
</g>
<defs>
<clipPath id="clip0_261_1453">
<rect width="41" height="41" fill="white"/>
</clipPath>
</defs>
</svg>
