<svg width="33" height="39" viewBox="0 0 33 39" fill="none" xmlns="http://www.w3.org/2000/svg">
<path d="M1.20551 19.6001L1.20559 19.6" stroke="black"/>
<path d="M20.6551 1.74565L4.11778 12.4643C3.54893 12.833 3.20557 13.4647 3.20557 14.1426V36.2C3.20557 37.3046 4.101 38.2 5.20557 38.2H29.7945C30.899 38.2 31.7945 37.3046 31.7945 36.2V9.25437C31.7945 8.61305 31.4869 8.01063 30.9675 7.63449L22.9159 1.80407C22.2468 1.31948 21.3485 1.29627 20.6551 1.74565Z" fill="white" stroke="white"/>
<rect x="21.6755" y="22.4041" width="4.74248" height="3.20413" fill="#F58282"/>
<path d="M21.927 2V37H17.0795V25.6047H8.20128V37H4.16571V13.5785L8.20128 10.9535L8.20128 22.3488H17.0795V5.25581L21.927 2Z" fill="#6E61FE"/>
<path d="M21.9271 2L30.8077 9.16632V13L21.9271 6.25965V4.12982V2Z" fill="#F58282"/>
<rect x="21.9271" y="23" width="3.94696" height="2" fill="#F58282"/>
</svg>
