<svg width="41" height="41" viewBox="0 0 41 41" fill="none" xmlns="http://www.w3.org/2000/svg">
<g clip-path="url(#clip0_261_1467)">
<path d="M39.2917 18.7917H1.70833C0.764847 18.7917 0 19.5566 0 20.5001C0 21.4436 0.764847 22.2084 1.70833 22.2084H39.2917C40.2352 22.2084 41 21.4436 41 20.5001C41 19.5566 40.2352 18.7917 39.2917 18.7917Z" fill="#6E61FE"/>
<path d="M39.2917 6.83325H1.70833C0.764847 6.83325 0 7.5981 0 8.54159C0 9.48507 0.764847 10.2499 1.70833 10.2499H39.2917C40.2352 10.2499 41 9.48507 41 8.54159C41 7.5981 40.2352 6.83325 39.2917 6.83325Z" fill="#6E61FE"/>
<path d="M39.2917 30.75H1.70833C0.764847 30.75 0 31.5148 0 32.4583C0 33.4018 0.764847 34.1667 1.70833 34.1667H39.2917C40.2352 34.1667 41 33.4018 41 32.4583C41 31.5148 40.2352 30.75 39.2917 30.75Z" fill="#6E61FE"/>
</g>
<defs>
<clipPath id="clip0_261_1467">
<rect width="41" height="41" fill="white"/>
</clipPath>
</defs>
</svg>
