<svg width="41" height="41" viewBox="0 0 41 41" fill="none" xmlns="http://www.w3.org/2000/svg">
<g clip-path="url(#clip0_261_1455)">
<path d="M20.5 20.5C22.5273 20.5 24.509 19.8989 26.1946 18.7726C27.8802 17.6463 29.194 16.0455 29.9698 14.1725C30.7456 12.2996 30.9485 10.2386 30.5531 8.25033C30.1576 6.26202 29.1813 4.43565 27.7478 3.00216C26.3144 1.56867 24.488 0.592454 22.4997 0.196955C20.5114 -0.198543 18.4504 0.00444118 16.5775 0.780239C14.7046 1.55604 13.1037 2.86981 11.9774 4.55541C10.8512 6.24101 10.25 8.22275 10.25 10.25C10.2527 12.9676 11.3335 15.5732 13.2552 17.4949C15.1768 19.4165 17.7824 20.4973 20.5 20.5ZM20.5 3.41667C21.8515 3.41667 23.1727 3.81744 24.2964 4.5683C25.4201 5.31915 26.296 6.38637 26.8132 7.635C27.3304 8.88363 27.4657 10.2576 27.202 11.5831C26.9384 12.9087 26.2876 14.1262 25.3319 15.0819C24.3762 16.0376 23.1587 16.6884 21.8331 16.952C20.5076 17.2157 19.1336 17.0804 17.885 16.5632C16.6364 16.046 15.5691 15.1701 14.8183 14.0464C14.0674 12.9227 13.6667 11.6015 13.6667 10.25C13.6667 8.43769 14.3866 6.69961 15.6681 5.41811C16.9496 4.13661 18.6877 3.41667 20.5 3.41667Z" fill="#6E61FE"/>
<path d="M20.5 23.9167C16.4237 23.9213 12.5156 25.5426 9.63323 28.425C6.75084 31.3074 5.12952 35.2154 5.125 39.2917C5.125 39.7448 5.30498 40.1793 5.62536 40.4997C5.94573 40.8201 6.38026 41.0001 6.83333 41.0001C7.28641 41.0001 7.72093 40.8201 8.04131 40.4997C8.36168 40.1793 8.54167 39.7448 8.54167 39.2917C8.54167 36.1202 9.80156 33.0786 12.0442 30.8359C14.2868 28.5933 17.3285 27.3334 20.5 27.3334C23.6715 27.3334 26.7132 28.5933 28.9558 30.8359C31.1984 33.0786 32.4583 36.1202 32.4583 39.2917C32.4583 39.7448 32.6383 40.1793 32.9587 40.4997C33.2791 40.8201 33.7136 41.0001 34.1667 41.0001C34.6197 41.0001 35.0543 40.8201 35.3746 40.4997C35.695 40.1793 35.875 39.7448 35.875 39.2917C35.8705 35.2154 34.2492 31.3074 31.3668 28.425C28.4844 25.5426 24.5763 23.9213 20.5 23.9167Z" fill="#6E61FE"/>
</g>
<defs>
<clipPath id="clip0_261_1455">
<rect width="41" height="41" fill="white"/>
</clipPath>
</defs>
</svg>
